<?xml version="1.0" encoding="UTF-8"?>
<svg width="31px" height="31px" viewBox="0 0 31 31" version="1.1" xmlns="http://www.w3.org/2000/svg" xmlns:xlink="http://www.w3.org/1999/xlink">
    <!-- Generator: Sketch 52.6 (67491) - http://www.bohemiancoding.com/sketch -->
    <title>facebook copy</title>
    <desc>Created with Sketch.</desc>
    <g id="Page-1" stroke="none" stroke-width="1" fill="none" fill-rule="evenodd">
        <g id="Desktop-Copy" transform="translate(-101.000000, -2664.000000)" fill="#F9A23F" fill-rule="nonzero">
            <g id="facebook-copy" transform="translate(101.000000, 2664.000000)">
                <path d="M17.2055363,10.5809028 L19.2221453,10.5809028 L19.2221453,7.58854167 L16.8515571,7.58854167 L16.8515571,7.59930556 C13.9875433,7.69618056 13.3975779,9.32152778 13.3439446,11.0222222 L13.333218,11.0222222 L13.333218,12.5076389 L11.3809689,12.5076389 L11.3809689,15.4354167 L13.333218,15.4354167 L13.333218,23.2715278 L16.2723183,23.2715278 L16.2723183,15.4354167 L18.6858131,15.4354167 L19.1470588,12.5076389 L16.2723183,12.5076389 L16.2723183,11.6034722 C16.283045,11.04375 16.6584775,10.5809028 17.2055363,10.5809028 Z" id="Shape"></path>
                <path d="M15.4463668,30.9892361 C11.3273356,30.9892361 7.44429066,29.3746528 4.5266436,26.446875 C1.61972318,23.5298611 0.0107266436,19.6333333 0.0107266436,15.5 C0.0107266436,11.3666667 1.61972318,7.47013889 4.53737024,4.54236111 C7.4550173,1.61458333 11.3273356,0.0107638889 15.4463668,0.0107638889 C19.5653979,0.0107638889 23.4484429,1.62534722 26.36609,4.553125 C29.283737,7.48090278 30.8927336,11.3666667 30.8927336,15.5107639 C30.8927336,19.6548611 29.283737,23.540625 26.36609,26.4684028 C23.4484429,29.3746528 19.5653979,30.9892361 15.4463668,30.9892361 Z M15.4463668,2.50798611 C11.9923875,2.50798611 8.74221453,3.86423611 6.29653979,6.30763889 C3.85086505,8.75104167 2.49930796,12.0340278 2.49930796,15.5 C2.49930796,18.9659722 3.85086505,22.2274306 6.28581315,24.6815972 C8.72076125,27.1357639 11.9816609,28.48125 15.4356401,28.48125 C18.8896194,28.48125 22.1397924,27.125 24.5854671,24.6815972 C27.0311419,22.2381944 28.3719723,18.9659722 28.3719723,15.5 C28.3719723,12.0340278 27.0204152,8.77256944 24.5854671,6.31840278 C22.150519,3.86423611 18.900346,2.50798611 15.4463668,2.50798611 Z" id="Shape"></path>
            </g>
        </g>
    </g>
</svg>