<?xml version="1.0" encoding="UTF-8"?>
<svg width="31px" height="30px" viewBox="0 0 31 30" version="1.1" xmlns="http://www.w3.org/2000/svg" xmlns:xlink="http://www.w3.org/1999/xlink">
    <!-- Generator: Sketch 52.6 (67491) - http://www.bohemiancoding.com/sketch -->
    <title>google copy</title>
    <desc>Created with Sketch.</desc>
    <g id="Page-1" stroke="none" stroke-width="1" fill="none" fill-rule="evenodd">
        <g id="Desktop-Copy" transform="translate(-213.000000, -2664.000000)" fill="#F9A23F" fill-rule="nonzero">
            <g id="google-copy" transform="translate(213.000000, 2664.000000)">
                <path d="M12.0125,14.15625 L12.0125,16.171875 L15.4515625,16.171875 C15.30625,17.015625 14.434375,18.703125 12.0125,18.703125 C9.9296875,18.703125 8.234375,17.0625 8.234375,15 C8.234375,12.9375 9.9296875,11.296875 12.0125,11.296875 C13.175,11.296875 13.9984375,11.765625 14.434375,12.1875 L16.08125,10.640625 C15.015625,9.703125 13.659375,9.09375 12.0125,9.09375 C8.6703125,9.09375 5.9578125,11.71875 5.9578125,14.953125 C5.9578125,18.1875 8.6703125,20.8125 12.0125,20.8125 C15.5,20.8125 17.825,18.421875 17.825,15.09375 C17.825,14.765625 17.7765625,14.4375 17.728125,14.109375 L12.0125,14.15625 Z" id="Shape"></path>
                <polygon id="Shape" points="25.0421875 14.15625 23.2984375 14.15625 23.2984375 12.46875 21.5546875 12.46875 21.5546875 14.15625 19.859375 14.15625 19.859375 15.84375 21.603125 15.84375 21.603125 17.53125 23.346875 17.53125 23.346875 15.84375 25.090625 15.84375"></polygon>
                <path d="M15.5484375,29.71875 C11.4796875,29.71875 7.653125,28.171875 4.746875,25.40625 C1.8890625,22.640625 0.290625,18.890625 0.290625,14.953125 C0.290625,11.015625 1.8890625,7.3125 4.746875,4.5 C7.6046875,1.6875 11.4796875,0.1875 15.5484375,0.1875 C19.6171875,0.1875 23.44375,1.734375 26.35,4.5 C29.2078125,7.265625 30.80625,11.015625 30.80625,14.953125 C30.80625,18.890625 29.2078125,22.59375 26.35,25.40625 C23.44375,28.171875 19.6171875,29.71875 15.5484375,29.71875 Z M15.5484375,2.578125 C12.109375,2.578125 8.9125,3.84375 6.490625,6.1875 C4.06875,8.53125 2.7609375,11.671875 2.7609375,14.953125 C2.7609375,18.28125 4.06875,21.375 6.490625,23.71875 C8.9125,26.0625 12.109375,27.328125 15.5484375,27.328125 C18.9875,27.328125 22.184375,26.0625 24.60625,23.71875 C27.028125,21.375 28.3359375,18.28125 28.3359375,14.953125 C28.3359375,11.625 27.028125,8.53125 24.60625,6.1875 C22.184375,3.84375 18.9390625,2.578125 15.5484375,2.578125 Z" id="Shape"></path>
            </g>
        </g>
    </g>
</svg>