<?xml version="1.0" encoding="UTF-8"?>
<svg width="31px" height="29px" viewBox="0 0 31 29" version="1.1" xmlns="http://www.w3.org/2000/svg" xmlns:xlink="http://www.w3.org/1999/xlink">
    <!-- Generator: Sketch 52.6 (67491) - http://www.bohemiancoding.com/sketch -->
    <title>instagram (1) copy</title>
    <desc>Created with Sketch.</desc>
    <g id="Page-1" stroke="none" stroke-width="1" fill="none" fill-rule="evenodd">
        <g id="Desktop-Copy" transform="translate(-177.000000, -2664.000000)" fill="#F9A23F" fill-rule="nonzero">
            <g id="instagram-(1)-copy" transform="translate(177.000000, 2664.000000)">
                <path d="M21.3125,0 L9.6875,0 C4.33515625,0 0,4.05546875 0,9.0625 L0,19.9375 C0,24.9445312 4.33515625,29 9.6875,29 L21.3125,29 C26.6648437,29 31,24.9445312 31,19.9375 L31,9.0625 C31,4.05546875 26.6648437,0 21.3125,0 Z M28.09375,19.9375 C28.09375,23.4378906 25.0542969,26.28125 21.3125,26.28125 L9.6875,26.28125 C5.94570312,26.28125 2.90625,23.4378906 2.90625,19.9375 L2.90625,9.0625 C2.90625,5.56210938 5.94570312,2.71875 9.6875,2.71875 L21.3125,2.71875 C25.0542969,2.71875 28.09375,5.56210938 28.09375,9.0625 L28.09375,19.9375 Z" id="Shape"></path>
                <path d="M15.5,7.25 C11.2193359,7.25 7.75,10.4955078 7.75,14.5 C7.75,18.5044922 11.2193359,21.75 15.5,21.75 C19.7806641,21.75 23.25,18.5044922 23.25,14.5 C23.25,10.4955078 19.7806641,7.25 15.5,7.25 Z M15.5,19.03125 C12.8298828,19.03125 10.65625,16.9978516 10.65625,14.5 C10.65625,12.0021484 12.8298828,9.96875 15.5,9.96875 C18.1701172,9.96875 20.34375,12.0021484 20.34375,14.5 C20.34375,16.9978516 18.1701172,19.03125 15.5,19.03125 Z" id="Shape"></path>
                <ellipse id="Oval" cx="23.83125" cy="6.70625" rx="1.03535156" ry="1"></ellipse>
            </g>
        </g>
    </g>
</svg>