<?xml version="1.0" encoding="UTF-8"?>
<svg width="31px" height="31px" viewBox="0 0 31 31" version="1.1" xmlns="http://www.w3.org/2000/svg" xmlns:xlink="http://www.w3.org/1999/xlink">
    <!-- Generator: Sketch 52.6 (67491) - http://www.bohemiancoding.com/sketch -->
    <title>telegram (1) copy</title>
    <desc>Created with Sketch.</desc>
    <g id="Page-1" stroke="none" stroke-width="1" fill="none" fill-rule="evenodd">
        <g id="Desktop-Copy" transform="translate(-140.000000, -2664.000000)" fill-rule="nonzero">
            <g id="telegram-(1)-copy" transform="translate(140.000000, 2664.000000)">
                <path d="M15.5,31 C11.3592504,31 7.46570973,29.3869617 4.53628389,26.4575359 C1.60685805,23.5342903 0,19.6407496 0,15.5 C0,11.3592504 1.60685805,7.46570973 4.53628389,4.53628389 C7.46570973,1.60685805 11.3592504,0 15.5,0 C19.6407496,0 23.5342903,1.61303828 26.4637161,4.54246411 C29.3931419,7.46570973 31,11.3592504 31,15.5 C31,19.6407496 29.3869617,23.5342903 26.4575359,26.4637161 C23.5342903,29.3931419 19.6407496,31 15.5,31 Z M15.5,2.50299043 C12.0267145,2.50299043 8.76355662,3.85645933 6.31000797,6.31000797 C3.85645933,8.76355662 2.50299043,12.0267145 2.50299043,15.5 C2.50299043,18.9732855 3.85645933,22.2364434 6.31000797,24.689992 C8.76355662,27.1435407 12.0267145,28.4970096 15.5,28.4970096 C18.9732855,28.4970096 22.2364434,27.1435407 24.689992,24.689992 C27.1435407,22.2364434 28.4970096,18.9732855 28.4970096,15.5 C28.4970096,12.0267145 27.1435407,8.76355662 24.689992,6.31000797 C22.2364434,3.85645933 18.9732855,2.50299043 15.5,2.50299043 Z" id="Shape" fill="#F9A23F"></path>
                <path d="M22.6999719,7.27162469 C22.562336,7.17850075 22.3809069,7.15987596 22.2245025,7.23437511 L6.72795534,14.3987101 C6.45268361,14.5228754 6.28376687,14.8022472 6.29002304,15.1002438 C6.29627922,15.3920321 6.47770831,15.6527792 6.74672387,15.7707362 L21.0358291,21.9479574 C21.5112985,22.1652466 22.0743543,21.8237922 22.1056352,21.3085064 L22.9126818,7.6999948 C22.918938,7.53237171 22.8438639,7.37095689 22.6999719,7.27162469 Z" id="Shape" fill="#E5E5E5"></path>
                <polygon id="Shape" fill="#F9A23F" points="10.7826087 17.4531322 11.7451012 23.8115942 22.4637681 7.1884058"></polygon>
                <path d="M22.0553985,7.22934038 L6.7229744,14.3543723 C6.45691538,14.4778564 6.28985507,14.7495214 6.28985507,15.039709 C6.29604249,15.3298966 6.47547764,15.6015616 6.74153665,15.7188714 L10.8994822,17.5217391 L22.4637681,7.23551458 C22.3338323,7.17377254 22.1853343,7.17377254 22.0553985,7.22934038 Z" id="Shape" fill="#F9A23F"></path>
                <polygon id="Shape" fill="#E5E5E5" points="12.9637554 18.4142951 11.6811594 23.8115942 22.4637681 7.1884058"></polygon>
                <path d="M22.2621358,7.22578693 C22.2439245,7.21332655 22.2257131,7.20086617 22.2014314,7.1884058 L13.0289855,18.5460395 L20.6413264,21.9477224 C21.1026804,22.165779 21.6490207,21.8231187 21.6793729,21.306013 L22.4624606,7.64943975 C22.4746015,7.48745485 22.4017561,7.32546994 22.2621358,7.22578693 Z" id="Shape" fill="#F9A23F"></path>
            </g>
        </g>
    </g>
</svg>