<?xml version="1.0" encoding="UTF-8"?>
<svg width="31px" height="31px" viewBox="0 0 31 31" version="1.1" xmlns="http://www.w3.org/2000/svg" xmlns:xlink="http://www.w3.org/1999/xlink">
    <!-- Generator: Sketch 52.6 (67491) - http://www.bohemiancoding.com/sketch -->
    <title>twitter copy</title>
    <desc>Created with Sketch.</desc>
    <g id="Page-1" stroke="none" stroke-width="1" fill="none" fill-rule="evenodd">
        <g id="Desktop-Copy" transform="translate(-64.000000, -2664.000000)" fill="#F9A23F" fill-rule="nonzero">
            <g id="twitter-copy" transform="translate(64.000000, 2664.000000)">
                <path d="M25.1968858,10.2795139 C24.5103806,10.5809028 23.7595156,10.7854167 22.9764706,10.8715278 C23.7702422,10.4086806 24.3816609,9.66597222 24.6712803,8.79409722 C23.9204152,9.22465278 23.1051903,9.53680556 22.2256055,9.70902778 C21.5176471,8.97708333 20.5200692,8.525 19.4152249,8.525 C17.2913495,8.525 15.5643599,10.2041667 15.5643599,12.2815972 C15.5643599,12.5722222 15.5965398,12.8628472 15.6608997,13.1427083 C12.4536332,12.98125 9.61107266,11.4850694 7.71245675,9.21388889 C7.3799308,9.77361111 7.18685121,10.4086806 7.18685121,11.0975694 C7.18685121,12.4 7.86262976,13.5517361 8.90311419,14.2190972 C8.27024221,14.1975694 7.68027682,14.0361111 7.15467128,13.7454861 L7.15467128,13.7885417 C7.15467128,15.6076389 8.48477509,17.1253472 10.2439446,17.4697917 C9.92214533,17.5559028 9.57889273,17.5989583 9.22491349,17.5989583 C8.97820069,17.5989583 8.73148789,17.5774306 8.49550173,17.534375 C8.98892734,19.0305556 10.4155709,20.1177083 12.099654,20.1392361 C10.7802768,21.1510417 9.11764706,21.7430556 7.30484429,21.7430556 C6.99377163,21.7430556 6.68269896,21.7215278 6.38235294,21.6892361 C8.08788927,22.7548611 10.1152249,23.3791667 12.2927336,23.3791667 C19.383045,23.3791667 23.26609,17.6527778 23.26609,12.690625 L23.2553633,12.20625 C24.0276817,11.7003472 24.6712803,11.0329861 25.1968858,10.2795139 Z" id="Shape"></path>
                <path d="M15.4463668,30.9892361 C11.3273356,30.9892361 7.44429066,29.3746528 4.5266436,26.446875 C1.61972318,23.5298611 0.0107266436,19.6333333 0.0107266436,15.5 C0.0107266436,11.3666667 1.61972318,7.47013889 4.53737024,4.54236111 C7.4550173,1.61458333 11.3273356,0.0107638889 15.4463668,0.0107638889 C19.5653979,0.0107638889 23.4484429,1.62534722 26.36609,4.553125 C29.283737,7.48090278 30.8927336,11.3666667 30.8927336,15.5107639 C30.8927336,19.6548611 29.283737,23.540625 26.36609,26.4684028 C23.4484429,29.3746528 19.5653979,30.9892361 15.4463668,30.9892361 Z M15.4463668,2.50798611 C11.9923875,2.50798611 8.74221453,3.86423611 6.29653979,6.30763889 C3.85086505,8.75104167 2.49930796,12.0340278 2.49930796,15.5 C2.49930796,18.9659722 3.85086505,22.2274306 6.28581315,24.6815972 C8.72076125,27.1357639 11.9816609,28.48125 15.4356401,28.48125 C18.8896194,28.48125 22.1397924,27.125 24.5854671,24.6815972 C27.0311419,22.2381944 28.3719723,18.9659722 28.3719723,15.5 C28.3719723,12.0340278 27.0204152,8.77256944 24.5854671,6.31840278 C22.150519,3.86423611 18.900346,2.50798611 15.4463668,2.50798611 Z" id="Shape"></path>
            </g>
        </g>
    </g>
</svg>